<?xml version="1.0" standalone="no"?>
<!DOCTYPE svg PUBLIC "-//W3C//DTD SVG 20010904//EN"
 "http://www.w3.org/TR/2001/REC-SVG-20010904/DTD/svg10.dtd">
<svg version="1.0" xmlns="http://www.w3.org/2000/svg"
 width="21.000000pt" height="19.000000pt" viewBox="0 0 21.000000 19.000000"
 preserveAspectRatio="xMidYMid meet">
<metadata>
Created by potrace 1.15, written by Peter Selinger 2001-2017
</metadata>
<g transform="translate(0.000000,19.000000) scale(0.100000,-0.100000)"
fill="#000000" stroke="none">
<path d="M11 177 c-6 -6 -11 -27 -11 -47 0 -30 8 -44 50 -85 l50 -49 55 54
c44 43 55 61 55 86 0 17 -6 36 -13 42 -17 14 -172 13 -186 -1z m77 -19 c9 -9
15 -9 24 0 15 15 51 15 66 0 21 -21 13 -43 -33 -88 l-45 -44 -40 39 c-46 45
-57 70 -40 90 15 18 52 19 68 3z"/>
</g>
</svg>
