<?xml version="1.0" standalone="no"?>
<!DOCTYPE svg PUBLIC "-//W3C//DTD SVG 20010904//EN"
 "http://www.w3.org/TR/2001/REC-SVG-20010904/DTD/svg10.dtd">
<svg version="1.0" xmlns="http://www.w3.org/2000/svg"
 width="21.000000pt" height="22.000000pt" viewBox="0 0 21.000000 22.000000"
 preserveAspectRatio="xMidYMid meet">
<metadata>
Created by potrace 1.15, written by Peter Selinger 2001-2017
</metadata>
<g transform="translate(0.000000,22.000000) scale(0.100000,-0.100000)"
fill="#000000" stroke="none">
<path d="M0 155 l0 -65 30 0 c27 0 30 -3 30 -30 0 -29 2 -30 44 -30 26 0 48
-6 56 -15 7 -8 16 -15 21 -15 5 0 9 7 9 15 0 8 5 15 10 15 6 0 10 28 10 65 l0
65 -30 0 c-27 0 -30 3 -30 30 l0 30 -75 0 -75 0 0 -65z"/>
</g>
</svg>
