<?xml version="1.0" standalone="no"?>
<!DOCTYPE svg PUBLIC "-//W3C//DTD SVG 20010904//EN"
 "http://www.w3.org/TR/2001/REC-SVG-20010904/DTD/svg10.dtd">
<svg version="1.0" xmlns="http://www.w3.org/2000/svg"
 width="27.000000pt" height="13.000000pt" viewBox="0 0 27.000000 13.000000"
 preserveAspectRatio="xMidYMid meet">
<metadata>
Created by potrace 1.15, written by Peter Selinger 2001-2017
</metadata>
<g transform="translate(0.000000,13.000000) scale(0.100000,-0.100000)"
fill="#000000" stroke="none">
<path d="M16 108 c-21 -29 -20 -57 2 -86 26 -33 70 -27 97 14 l20 30 20 -30
c27 -41 71 -47 97 -14 37 48 11 108 -48 108 -22 0 -37 -6 -40 -15 -4 -8 -14
-15 -24 -15 -10 0 -23 7 -30 15 -19 23 -76 19 -94 -7z"/>
</g>
</svg>
