<svg height="512pt" viewBox="0 -1 512.00217 512" width="512pt" xmlns="http://www.w3.org/2000/svg"><path d="m452.863281 253.839844c-.003906-.03125-.007812-.066406-.011719-.097656l54.75-68.222657c4.207032-5.246093 5.5-12.253906 3.4375-18.65625-2.066406-6.398437-7.207031-11.335937-13.6875-13.132812l-97-26.9375c-10.640624-2.957031-21.664062 3.277343-24.621093 13.917969-2.953125 10.644531 3.277343 21.667968 13.921875 24.625l67.757812 18.8125-45.882812 57.179687-75.523438 21.546875-.003906-242.875c0-11.042969-8.953125-20-20-20s-20 8.957031-20 20v20h-80v-20c0-11.042969-8.953125-20-20-20s-20 8.957031-20 20l.003906 242.738281-75.800781-21.746093-45.609375-56.839844 67.757812-18.816406c10.644532-2.953126 16.875-13.980469 13.917969-24.621094-2.953125-10.644532-13.972656-16.875-24.621093-13.917969l-97 26.933594c-6.476563 1.800781-11.621094 6.734375-13.683594 13.136719-2.0625 6.398437-.769532 13.40625 3.4375 18.652343l55.222656 68.816407-55.546875 73.0625c-3.925781 5.164062-5.101563 11.910156-3.15625 18.101562 1.945313 6.1875 6.769531 11.046875 12.945313 13.039062l46.132812 14.867188v26.820312c0 35.542969 23.871094 67.175782 58.050781 76.929688l99.078125 28.269531c13.011719 3.710938 26.394532 5.566407 39.773438 5.566407 13.453125 0 26.910156-1.875 39.984375-5.628907l98.175781-28.167969c34.113281-9.792968 57.9375-41.414062 57.9375-76.898437v-27.300781l45.101562-14.449219c6.160157-1.972656 10.984376-6.800781 12.949219-12.960937 1.96875-6.160157.835938-12.894532-3.039062-18.070313zm-156.859375-53.839844h-80v-40h80zm-.003906-120v40h-80v-40zm-79.996094 160h80v34.289062l-35.886718 10.238282c-1.378907.0625-2.753907.273437-4.109376.621094-1.34375-.347657-2.707031-.558594-4.074218-.621094l-35.929688-10.308594zm-125.507812 39.820312 127.042968 36.453126-39.125 53.269531-125.402343-40.414063zm38.53125 158.871094c-17.089844-4.875-29.027344-20.695312-29.027344-38.464844v-13.929687l79.867188 25.742187c2.019531.648438 4.085937.964844 6.128906.964844 6.25 0 12.285156-2.9375 16.125-8.164062l33.878906-46.128906v110.164062c-2.648438-.539062-5.285156-1.171875-7.898438-1.917969zm283.972656-38.394531c0 17.742187-11.910156 33.554687-28.96875 38.445313l-98.175781 28.171874c-3.253907.933594-6.546875 1.695313-9.855469 2.308594v-109.847656l32.792969 45.347656c3.832031 5.296875 9.910156 8.28125 16.210937 8.28125 2.03125 0 4.089844-.3125 6.097656-.957031l81.898438-26.234375zm-80.289062-30.765625-38.4375-53.152344 128.082031-36.542968 36.816406 49.179687zm0 0"/></svg>