<svg height="511pt" viewBox="0 0 511 511.998" width="511pt" xmlns="http://www.w3.org/2000/svg"><path d="m236.304688 225.90625.109374-155.46875c0-17.078125-13.703124-30.453125-31.199218-30.453125-17.199219 0-31.195313 14.277344-31.195313 31.824219v.113281c0 21.222656-17.265625 38.484375-38.484375 38.484375h-3.921875c-6.929687 0-13.746093 2.882812-18.699219 7.902344-4.714843 4.773437-7.265624 10.921875-7.183593 17.3125.09375 7.101562 3.089843 13.609375 8.433593 18.328125 5.820313 5.136719 8.140626 13.179687 5.953126 20.628906-2.191407 7.449219-8.492188 12.957031-16.167969 14.125l-19.6875 3c-24.9375 3.863281-43.777344 25.890625-43.777344 51.234375 0 28.59375 23.261719 51.855469 51.855469 51.855469 11.042968 0 19.992187 8.949219 19.992187 19.992187 0 11.042969-8.949219 19.992188-19.992187 19.992188-7.597656 0-14.984375-.933594-22.050782-2.683594-5.710937 6.523438-13.066406 18.101562-13.066406 34.476562 0 23.3125 18.964844 42.277344 42.273438 42.277344h1.777344c23.742187.023438 44.886718 14.328125 53.878906 36.441406 6.605468 16.234376 21.953125 26.726563 39.097656 26.726563 7.101562 0 12.921875-1.09375 17.785156-3.339844 10.027344-4.632812 21.90625-.257812 26.535156 9.765625 4.628907 10.023438.253907 21.902344-9.769531 26.535156-10.230469 4.722657-21.535156 7.019532-34.550781 7.019532-33.484375 0-63.371094-20.269532-76.132812-51.640625-2.84375-6.996094-9.464844-11.519531-16.863282-11.523438l-1.757812-.003906c-45.355469 0-82.257813-36.898437-82.257813-82.257813 0-22.894531 8.140625-40.503906 16.765625-52.753906-20.449218-16.859375-33.503906-42.375-33.503906-70.882812 0-22.050782 7.933594-43.375 22.339844-60.039063 12.09375-13.984375 28.074218-23.957031 45.738281-28.6875-1.777344-5.808593-2.746094-11.890625-2.828125-18.070312-.21875-17.167969 6.425781-33.476563 18.710938-45.917969 12.417968-12.582031 29.601562-19.796875 47.152343-19.796875h2.4375c.734375-38.957031 32.375-70.421875 71.164063-70.421875 18.992187 0 36.8125 7.199219 50.175781 20.269531.347656.339844.675781.695313 1.015625 1.042969.339844-.347656.664062-.703125 1.011719-1.042969 13.363281-13.070312 31.183593-20.269531 50.175781-20.269531 38.792969 0 70.433594 31.464844 71.167969 70.421875h2.613281c17.375 0 34.433594 7.128906 46.792969 19.558594 12.28125 12.347656 18.992187 28.566406 18.898437 45.667969-.035156 6.363281-1.011718 12.628906-2.839844 18.605468 30.207032 8.125 54.796876 31.539063 64.0625 61.816406 3.230469 10.558594-2.710937 21.738282-13.269531 24.96875-10.558593 3.226563-21.734375-2.707031-24.964843-13.265624-5.777344-18.878907-22.09375-33.023438-41.570313-36.039063l-19.660156-3.039063c-7.664063-1.183593-13.953125-6.691406-16.132813-14.136718-2.179687-7.441406.140625-15.476563 5.957032-20.609375 5.320312-4.695313 8.394531-11.445313 8.433593-18.515625.035157-6.382813-2.542969-12.511719-7.265625-17.257813-4.910156-4.9375-11.632812-7.769531-18.441406-7.769531h-4.097656c-21.222656 0-38.484375-17.261719-38.484375-38.484375v-.113281c0-17.546875-13.996094-31.824219-31.199219-31.824219-17.492188 0-31.195312 13.378906-31.195312 30.457031l-.109376 155.492188c-.007812 11.039062-8.957031 19.980468-19.992187 19.980468-.003906 0-.007813 0-.011719 0-11.042968-.007812-19.988281-8.964843-19.980468-20.007812zm259.714843 152.289062c-10.863281-2.007812-21.285156 5.171876-23.289062 16.03125-8.296875 44.964844-47.570313 77.597657-93.382813 77.597657-52.363281 0-94.960937-42.601563-94.960937-94.960938 0-52.363281 42.597656-94.964843 94.960937-94.964843 8.707032 0 17.324219 1.175781 25.613282 3.488281 10.632812 2.972656 21.660156-3.242188 24.628906-13.878907 2.972656-10.632812-3.242188-21.660156-13.875-24.632812-11.792969-3.292969-24.027344-4.960938-36.367188-4.960938-74.410156 0-134.945312 60.539063-134.945312 134.945313 0 74.410156 60.535156 134.949219 134.945312 134.949219 65.097656 0 120.90625-46.398438 132.703125-110.328125 2.003907-10.859375-5.175781-21.285157-16.03125-23.285157zm-32.773437-81.515624-83.824219 82.96875-25.921875-25.921876c-7.808594-7.804687-20.464844-7.804687-28.273438.003907-7.808593 7.804687-7.808593 20.464843 0 28.273437l29.433594 29.433594c6.808594 6.808594 15.777344 10.214844 24.742188 10.214844 8.90625 0 17.8125-3.359375 24.609375-10.089844l87.359375-86.464844c7.847656-7.769531 7.914062-20.425781.144531-28.273437-7.765625-7.847657-20.421875-7.914063-28.269531-.144531zm0 0"/></svg>